<svg clip-rule="evenodd" fill-rule="evenodd" height="512" image-rendering="optimizeQuality" shape-rendering="geometricPrecision" text-rendering="geometricPrecision" viewBox="0 0 43.349 43.349" width="512" xmlns="http://www.w3.org/2000/svg"><path d="m34.605 25.845-17.307.13h-.01c-1.577 0-3.064-.87-3.885-2.271-.778-1.33-.816-2.882-.1-4.152 1.216-2.159 2.984-2.533 4.224-2.479-1.07-1.425-1.698-2.983-1.9-4.692-.648-5.482-3.527-6.826-3.556-6.84a.373.373 0 0 1-.027-.013c-.973-.525-1.87-.722-2.666-.722-1.458 0-2.585.66-3.25 1.185a3.325 3.325 0 0 0-.478.452.361.361 0 0 1-.017.02c-.297.355-.44.72-.638 1.221-.081.207-.174.442-.287.7l-.01.019a.76.76 0 0 0-.1.375c.004.052.017.085.024.104.137.359.858.636 1.438.86.463.178.9.346 1.196.582.82.652 2.102 2.074 1.477 4.274a.363.363 0 0 1-.025.066c-.027.054-2.684 5.465-1.45 8.03a.36.36 0 0 1 .028.083c.003.013.351 1.49 1.75 3.125 1.293 1.511 3.777 3.475 8.268 4.247 1.89.304 3.424.427 4.77.43.21 0 .38.169.38.38v.38c2.14-.031 3.828-.359 5.756-.733 1.292-.25 2.757-.536 4.535-.756 2.17-.268 4.803-.117 6.553.376.031.009 3.122.86 3.935-.455a.772.772 0 0 0 .064-.688c-.472-1.316-4.802-2.822-4.846-2.837-1.082-.37-2.34-.746-3.673-1.143a.38.38 0 0 1-.116.742zM9.74 7.365c0 .858-.698 1.556-1.556 1.556s-1.557-.698-1.557-1.556c0-.859.699-1.557 1.557-1.557s1.556.698 1.556 1.557z" fill="#cacaca"/><g fill-rule="nonzero"><path d="M9.378 4.806c-1.458 0-2.585.66-3.25 1.185-.676.534-.848.97-1.133 1.693-.081.207-.174.442-.287.7l-.01.019c-.148.29-.094.432-.076.48.137.358.858.635 1.438.859.463.178.9.346 1.196.582.82.652 2.102 2.074 1.477 4.274a.37.37 0 0 1-.025.066c-.027.054-2.684 5.466-1.45 8.03a.362.362 0 0 1 .028.083c.003.013.351 1.49 1.75 3.125 1.293 1.511 3.777 3.475 8.268 4.247 5.071.816 7.582.327 10.76-.29 1.305-.253 2.783-.54 4.588-.763 2.26-.28 5.014-.12 6.852.397 1.046.295 2.747.422 3.082-.122.003-.006-.026-.427-1.835-1.33-1.001-.499-2.147-.94-2.545-1.075-1.073-.367-2.331-.742-3.663-1.14-3.641-1.087-8.173-2.44-11.83-4.485-4.343-2.43-6.66-5.361-7.086-8.96-.648-5.482-3.527-6.826-3.556-6.84a.373.373 0 0 1-.027-.013c-.973-.525-1.87-.722-2.666-.722zm12.75 26.535c-1.393 0-2.983-.126-4.95-.442-4.744-.815-7.377-2.918-8.75-4.54-1.384-1.632-1.804-3.095-1.874-3.373-1.314-2.825 1.204-8.112 1.456-8.627.483-1.759-.56-2.909-1.227-3.44-.205-.163-.608-.318-.997-.468-.758-.291-1.616-.623-1.874-1.298-.127-.332-.092-.697.104-1.086.105-.24.19-.455.272-.662.297-.754.531-1.35 1.37-2.01 1.171-.926 3.604-2.226 6.735-.542.285.13 3.305 1.647 3.99 7.439.896 7.587 11 10.603 18.378 12.806 1.339.4 2.603.777 3.69 1.148.044.014 4.374 1.52 4.846 2.837a.772.772 0 0 1-.064.688c-.813 1.315-3.904.464-3.936.455-1.749-.493-4.382-.644-6.552-.376-1.779.22-3.243.505-4.535.756-2.025.393-3.785.735-6.082.735z"/><path d="M17.287 25.974c-1.576 0-3.063-.87-3.884-2.27-.778-1.33-.816-2.881-.1-4.152 1.614-2.864 4.197-2.588 5.233-2.335a.38.38 0 0 1-.18.738c-1.078-.262-3.08-.354-4.39 1.97-.582 1.032-.547 2.301.093 3.394.686 1.169 1.921 1.895 3.226 1.895h.01l17.362-.13h.002a.38.38 0 0 1 .003.76l-17.364.13h-.01zM4.218 9.165a.378.378 0 0 1-.245-.09c-.71-.6-2.819-.256-3.502-.087a.382.382 0 0 1-.47-.403C.225 6.07 3.817 5.82 5.354 5.828a.38.38 0 0 1-.002.76h-.066c-.99 0-3.715.131-4.383 1.535.949-.168 2.708-.351 3.562.37a.381.381 0 0 1-.246.672zM8.183 6.569a.796.796 0 1 0 .001 1.59.796.796 0 0 0-.001-1.59zm0 2.352a1.558 1.558 0 0 1-1.557-1.556c0-.859.699-1.557 1.557-1.557s1.556.698 1.556 1.557c0 .858-.698 1.556-1.556 1.556zM18.508 37.893h-.002a.38.38 0 0 1-.379-.382l.03-6.801a.38.38 0 0 1 .38-.379h.001a.38.38 0 0 1 .38.383l-.03 6.8a.38.38 0 0 1-.38.38z"/><path d="M21.972 39.312a.38.38 0 0 1-.242-.087c-3.468-2.867-6.033-.233-6.14-.119a.381.381 0 0 1-.555-.521c.03-.033 3.151-3.277 7.18.053a.38.38 0 0 1-.243.674zM22.073 36.087a.38.38 0 0 1-.38-.38V30.96a.38.38 0 1 1 .76 0v4.748c0 .21-.17.38-.38.38z"/><path d="M25.537 37.17a.379.379 0 0 1-.203-.058c-3.527-2.226-6.19-.115-6.216-.093a.38.38 0 0 1-.48-.589c.031-.026.797-.641 2.057-.942 1.156-.275 2.97-.328 5.045.98a.38.38 0 0 1-.203.703z"/></g><path d="m17.294 25.214 14.855-.111c-3.111-.962-6.546-2.146-9.436-3.763-1.86-1.04-3.35-2.174-4.478-3.412-1.1-.238-3.007-.243-4.27 1.997-.581 1.032-.546 2.301.094 3.394.686 1.169 1.921 1.895 3.226 1.895z" fill="#a4a4a4"/><path d="M8.183 8.16a.796.796 0 1 0-.001-1.592.796.796 0 0 0 0 1.592z" fill="#e0f6ff"/><path d="M4.016 8.067c.105-.24.19-.454.272-.662.112-.285.215-.547.345-.799-1.22.066-3.179.357-3.731 1.517.787-.139 2.13-.289 3.054.075.018-.043.038-.087.06-.13z" fill="#e57373"/></svg>