<svg clip-rule="evenodd" fill-rule="evenodd" height="512" image-rendering="optimizeQuality" shape-rendering="geometricPrecision" text-rendering="geometricPrecision" viewBox="0 0 43.3492 43.3492" width="512" xmlns="http://www.w3.org/2000/svg"><g id="Layer_x0020_1"><g id="_220240088"><path id="_220240448" d="m34.6052 25.845-17.3072.1292h-.0106c-1.5763 0-3.0631-.8694-3.8841-2.2705-.7788-1.3293-.8162-2.8812-.1003-4.1515 1.2165-2.1591 2.9838-2.5336 4.224-2.4789-1.0695-1.4254-1.6981-2.9835-1.9001-4.6924-.6475-5.4815-3.5265-6.826-3.5555-6.839-.0087-.0039-.0192-.009-.0276-.0137-.9731-.525-1.8691-.7222-2.6658-.7222-1.4583 0-2.5851.6605-3.2493 1.1855-.1975.1557-.3519.3031-.4787.4517-.0001.0001-.0002.0002-.0003.0003-.0054.0069-.0111.0136-.017.0201-.2963.3546-.4396.7185-.6373 1.2204-.0816.207-.1741.4418-.2878.6994-.003.0067-.0061.0137-.0095.0196-.0815.1597-.1017.2744-.1004.3532.0006.0073.0009.0147.001.0221.0037.0517.0165.0851.0236.1038.137.3589.858.6358 1.4373.8596.463.1783.9003.3467 1.1966.5823.8196.6519 2.1014 2.0738 1.4766 4.2744-.0064.0228-.0149.0448-.0252.0652-.0269.0546-2.6839 5.4658-1.4501 8.0309.0126.0255.0222.0534.0285.0821.0032.0137.3513 1.4902 1.7505 3.1254 1.2927 1.511 3.7764 3.4752 8.2673 4.2465 1.8896.304 3.4237.427 4.7693.43.21 0 .3802.1692.3802.3801v.3798c2.14-.0305 3.8282-.3582 5.7565-.7324 1.2921-.2506 2.7567-.5357 4.5356-.7556 2.1696-.2682 4.8026-.1178 6.5521.3754.0318.0091 3.1223.8604 3.9355-.4547.1288-.2081.1512-.4457.0644-.6884-.472-1.3159-4.8026-2.8222-4.8462-2.8371-1.0822-.3687-2.3407-.7453-3.6733-1.1427.1509.0495.2605.191.2618.3585.0014.21-.1675.382-.3774.3832zm-24.8664-18.4798c0 .8576-.6981 1.5558-1.5562 1.5558s-1.5562-.6982-1.5562-1.5558c0-.8589.6981-1.5571 1.5562-1.5571s1.5562.6982 1.5562 1.5571z" fill="#cacaca"/><g fill-rule="nonzero"><path id="_220241024" d="m9.378 4.806c-1.4583 0-2.5851.6605-3.2493 1.1855-.677.5337-.8488.9704-1.1333 1.6925-.0816.207-.1741.4418-.2878.6994-.003.0067-.0061.0137-.0095.0196-.1482.2902-.0937.432-.0758.4791.137.3589.858.6358 1.4373.8596.463.1783.9003.3467 1.1966.5823.8196.6519 2.1014 2.0738 1.4766 4.2744-.0064.0228-.0149.0448-.0251.0652-.027.0546-2.684 5.4659-1.4502 8.0309.0126.0255.0222.0534.0285.082.0032.0138.3513 1.4903 1.7505 3.1255 1.2927 1.511 3.7764 3.4752 8.2673 4.2465 5.0713.816 7.5822.3279 10.761-.289 1.3042-.2537 2.7824-.54 4.5872-.7638 2.2606-.28 5.0138-.1198 6.8517.3974 1.0465.2949 2.7468.4217 3.0822-.1221.0027-.0059-.0263-.4269-1.8354-1.3301-1.0006-.4987-2.1464-.9404-2.5446-1.0751-1.073-.3668-2.331-.7418-3.6626-1.1392-3.6413-1.0874-8.1731-2.4398-11.8302-4.4861-4.3429-2.4303-6.6609-5.3606-7.0862-8.9596-.6475-5.4815-3.5265-6.826-3.5555-6.839-.0087-.0039-.0192-.009-.0276-.0137-.9731-.525-1.8691-.7222-2.6658-.7222zm12.75 26.5347c-1.3928 0-2.9829-.1257-4.9491-.4414-4.7447-.8152-7.3777-2.9184-8.7516-4.5399-1.3835-1.632-1.8028-3.0955-1.8728-3.3732-1.3149-2.8253 1.2037-8.1125 1.4558-8.6273.4825-1.7588-.5602-2.9086-1.2276-3.4395-.2051-.1634-.6074-.3181-.9966-.4685-.7576-.291-1.6163-.6228-1.8743-1.2974-.127-.3326-.092-.6979.104-1.0862.1057-.2396.1902-.4548.272-.6625.297-.7536.5315-1.3489 1.3697-2.0105 1.1718-.9248 3.6042-2.2254 6.7353-.5416.2855.1308 3.3053 1.647 3.9894 7.4391.8968 7.5871 11.0009 10.6034 18.3785 12.8059 1.339.3994 2.6037.7776 3.6905 1.1479.0435.0149 4.3742 1.5212 4.8462 2.8371.0868.2427.0644.4803-.0644.6884-.8132 1.3151-3.9037.4638-3.9355.4547-1.7495-.4932-4.3825-.6436-6.5521-.3754-1.7789.2199-3.2435.505-4.5357.7556-2.0249.393-3.7851.7347-6.0817.7347z"/><path id="_220240616" d="m17.2874 25.9742c-1.5763 0-3.0631-.8694-3.8841-2.2705-.7788-1.3293-.8162-2.8811-.1003-4.1515 1.6138-2.8643 4.197-2.5878 5.2329-2.3353.204.0495.3291.2556.2795.4594-.0495.2042-.2551.3287-.4593.2792-1.0776-.2623-3.0806-.3546-4.3904 1.9698-.5817 1.0319-.5467 2.3007.0937 3.3939.6852 1.1687 1.9208 1.8944 3.226 1.8944h.0087l17.3625-.1296h.0027c.2088 0 .3788.1685.3804.3774.0014.21-.1675.382-.3774.3832l-17.3643.1296c-.0036 0-.0071 0-.0106 0z"/><path id="_220241120" d="m4.2183 9.1645c-.0868 0-.174-.0295-.2454-.09-.7104-.6-2.8189-.2556-3.5015-.0864-.1192.0287-.2453-.0007-.3386-.0809-.0932-.0805-.142-.2002-.1313-.322.2226-2.5155 3.8158-2.766 5.3517-2.757.21.0008.3794.1724.3782.3821-.0013.2089-.1714.3785-.3803.3785-.0208-.0012-.0431 0-.0661 0-.9892 0-3.7152.1304-4.3834 1.5338.9492-.1672 2.7088-.3506 3.5623.3703.1604.1359.1805.3762.045.5368-.0753.0892-.1826.1348-.2906.1348z"/><path id="_220241048" d="m8.1826 6.5688c-.4387 0-.7956.3577-.7956.7963 0 .4387.3569.7952.7956.7952s.7956-.3565.7956-.7952c0-.4386-.3569-.7963-.7956-.7963zm0 2.3522c-.8581 0-1.5562-.6982-1.5562-1.5559 0-.8588.6981-1.5569 1.5562-1.5569s1.5562.6981 1.5562 1.5569c0 .8577-.6981 1.5559-1.5562 1.5559z"/><path id="_220241096" d="m18.5078 37.8931c-.0006 0-.0011 0-.0015 0-.2102-.0012-.3797-.1724-.3788-.3825l.0289-6.8006c.0009-.2089.171-.3785.3802-.3785h.0017c.21.0012.3797.1716.3788.3825l-.0291 6.8005c-.0009.2089-.171.3786-.3802.3786z"/><path id="_220240472" d="m21.972 39.3119c-.0854 0-.1713-.0287-.2422-.0872-3.4679-2.8667-6.0331-.2325-6.1405-.1186-.144.1515-.3847.1594-.5372.0157-.1526-.1445-.1604-.3841-.0173-.5368.031-.0334 3.1515-3.277 7.1796.0534.162.1339.1846.3734.0507.5352-.0751.0911-.1837.1383-.2931.1383z"/><path id="_220240856" d="m22.0731 36.0875c-.21 0-.3803-.1704-.3803-.3801v-4.7488c0-.2109.1703-.3801.3803-.3801s.3803.1692.3803.3801v4.7488c0 .2097-.1703.3801-.3803.3801z"/><path id="_220240496" d="m25.5372 37.1709c-.0695 0-.1397-.0188-.2027-.0585-3.5272-2.2262-6.19-.1151-6.2164-.0931-.1627.1328-.4023.108-.535-.0546-.1327-.1621-.1085-.4021.0543-.5344.0321-.0267.7972-.6416 2.0575-.942 1.1565-.2753 2.971-.3287 5.0454.9805.1778.1119.2308.3475.1187.525-.0724.1147-.1958.1771-.3218.1771z"/></g><path id="_220239776" d="m17.2941 25.2136 14.8545-.1109c-3.1109-.9619-6.5461-2.1455-9.4355-3.7622-1.8609-1.0414-3.35-2.1745-4.4777-3.4127-1.1011-.2381-3.0073-.2427-4.2697 1.9975-.5817 1.032-.5467 2.3007.0937 3.3939.6852 1.1687 1.9208 1.8944 3.226 1.8944z" fill="#a4a4a4"/><path id="_220239632" d="m8.1826 8.1603c.4387 0 .7956-.3565.7956-.7951 0-.4387-.3569-.7964-.7956-.7964s-.7956.3577-.7956.7964c0 .4386.3569.7951.7956.7951z" fill="#e0f6ff"/><path id="_220240256" d="m4.0158 8.0673c.1057-.2396.1902-.4547.272-.6625.1122-.2846.2154-.5467.3457-.7983-1.2212.0658-3.1795.3561-3.7319 1.5162.787-.1387 2.1311-.2885 3.054.0753.018-.0433.0381-.0868.0602-.1307z" fill="#e57373"/></g></g></svg>